<svg viewBox="-8 -8 30 30" width='20px' height='20px'>
  <path d="M 17 4 V 3 H 7 v 1 H 3 v 4.49 v -0.01 c -0.03 1.54 0.73 2.99 2.01 3.86 l 5.54 3.58 V 18 H 6 v 3 h 12 v -3 h -4.5 v -2.11 l 5.5 -3.56 l -0.01 0.01 A 4.567 4.567 0 0 0 21 8.48 V 4 h -4 Z M 5.19 8.49 v -1.8 H 7 V 10 v -0.01 c 0 0.26 0.03 0.52 0.08 0.78 L 6 10 c -0.51 -0.34 -0.81 -0.91 -0.81 -1.52 v 0.01 Z m 13.62 0 v -0.01 c 0 0.61 -0.3 1.18 -0.81 1.52 l -1.11 1 c 0.07 -0.35 0.11 -0.69 0.11 -1.04 V 6.69 h 1.81 v 1.8 Z m 0 0" />
  Sorry, your browser does not support inline SVG.
</svg>
